<svg xmlns="http://www.w3.org/2000/svg" viewBox="15.4 584.9 969 381.4"><path fill="#FEFEFE" d="M312.8 590.7c8 1.5 14.4 2.9 15.9 21.7.7 10.8 0 15.9 0 25.9V696c0 10.1 0 10.8-.7 23.1-.7 15.9 0 24.6-10.8 25.9-3.6.7-5.8 0-5.8 2.2 0 1.5.7 2.2 2.9 2.2 1.5 0 16.6-.7 25.9-.7 8.6 0 23.9.7 25.9.7 2.2 0 3.6 0 3.6-2.2s-2.2-2.2-5.1-2.2c-9.3 0-12.2-8-13-15.1-.7-11.5-.7-23.1-.7-33.2v-25.9c5.8 0 17.3-.7 21.7 0 2.9 0 4.4.7 5.1 4.4 10.8 51.2 38.3 79.3 77.9 95.2 2.2.7 2.9 0 2.9-.7s-.7-2.2-5.1-6.5c-31.7-27.4-45.4-61.3-52.7-92.3 0-.7 1.5-1.5 2.9-2.2 15.1-4.4 32.5-18.8 32.5-39 0-33.9-34.6-42.5-57.8-42.5-13.7 0-32.5 1.5-38.3 1.5-15.1 0-26.6-1.5-28.1-1.5s-2.2.7-2.2 2.2c.2.6.9 1.3 3.1 1.3m39 22.4c0-15.9 3.6-19.5 18-19.5 23.9 0 43.2 8.6 43.2 32.5 0 15.9-8.6 35.4-36.8 35.4h-24.6v-48.3h.2zm629.7-26.8c-1.5 0-22.4.7-28.1.7-7.3 0-20.2-.7-24.6-.7-.7 0-3.6-.7-3.6 2.2 0 2.2 1.5 2.2 4.4 2.2 5.1 0 11.5 4.4 13.7 6.5 5.1 5.1 8 8.6 8 33.9 0 22.4-1.5 52.7-2.2 74.4 0 .7-.7 1.5 0 2.2-25.9-30.3-48.3-59.1-69.3-85.1-5.1-6.5-20.9-28.8-23.1-33.2 0-.7-.7-2.9-3.6-2.9-4.4 0-12.2.7-15.9.7-4.4 0-22.4-.7-23.9-.7-2.2 0-2.9.7-2.9 2.2s2.9 2.9 5.8 2.9c3.6 0 9.3 4.4 14.4 8.6 3.6 3.6 7.3 8 8 15.1 0 1.5.7 5.8.7 10.1 0 68.5-2.2 88.8-2.2 93 0 24.6-8 25.2-15.9 26.6-2.9.7-7.3.7-7.3 2.9 0 1.5 1.5 2.2 2.2 2.2 1.5 0 18-.7 28.8-.7 7.3 0 21.7.7 23.1.7 2.2 0 2.2-.7 2.2-1.5 0-1.5-.7-2.2-2.2-2.2-15.1-3.6-20.2-6.5-20.2-24.6v-48.3c0-20.2.7-43.2.7-47.6l.7.7c21.7 25.2 71.4 88 102.4 127.6 1.5 2.2 5.8 0 5.8-2.9 0-22.4 4.4-129.8 4.4-137.8 0-18 10.8-21.7 19.5-21.7 1.5 0 2.9-.7 2.9-2.2.2-2.5-.6-3.3-2.7-3.3M820.7 846.1c-13.7-8.6-28.8-20.2-28.8-36.8 0-12.2 11.5-22.4 25.9-22.4 20.2 0 33.9 13.7 39.7 33.2.7 1.5 1.5 4.4 3.6 4.4 1.5 0 2.2-1.5 2.2-2.2 0-4.4-.7-7.3-.7-20.2 0-5.1 1.5-12.2 1.5-18 0-2.2 0-3.6-1.5-3.6-3.6 0-3.6 6.5-10.8 6.5-10.1 0-18-6.5-35.4-6.5-22.4 0-46.1 14.4-46.1 39 0 20.9 15.9 34.6 35.4 46.1 35.4 22.4 46.1 29.5 46.1 49 0 20.2-15.1 25.2-30.3 25.2-22.4 0-44-15.1-49-41.2-.7-2.2-.7-2.9-2.9-2.9-2.9 0-2.9.7-2.9 2.9 0 .7 1.5 8.6.7 24.6-.7 9.3-2.2 15.9-6.5 21.7-1.5 2.2.7 2.9 2.2 2.9 4.4.7 3.6-9.3 16.6-9.3 3.6 0 9.3.7 18.8 5.1 8.6 3.6 20.2 5.1 25.2 5.1 29.5 0 49-15.1 49-41.2.6-26.1-18.9-40.6-52-61.4m-88.1-95.3c23.1 0 38.3-10.1 44-16.6 1.5-1.5 2.2-1.5 2.9 1.5 3.6 12.2 13.7 15.1 20.2 15.1 5.1 0 8.6-1.5 8.6-2.9 0-.7-.7-.7-1.5-1.5-.7 0-1.5-.7-2.2-1.5-2.9-2.2-3.6-8.6-3.6-15.9v-28.9c0-8.6 1.5-15.9 10.8-15.9 2.2 0 2.2 0 2.2-2.2s-1.5-2.2-3.6-2.2c-1.5 0-14.4.7-23.1.7-9.3 0-21.7-.7-23.1-.7-2.2 0-5.1 0-5.1 1.5 0 2.2.7 2.2 2.2 2.2 10.1 0 14.4 5.8 14.4 13.7v12.2c0 18-12.2 32.5-38.3 32.5-31.7 0-64.2-21.7-64.2-72.2 0-57.8 23.9-77.9 59.8-77.9 18.8 0 36.1 9.3 44 18 6.5 8.6 10.8 15.1 13.7 20.2 1.5 2.2 4.4.7 4.4-1.5 0-3.6-2.9-14.4-2.9-23.9 0-3.6 1.5-12.2.7-15.1 0-2.2-1.5-2.2-2.2-2.2-2.2 0-6.5 6.5-12.2 6.5-1.5 0-6.5-.7-7.3-.7-15.9-6.5-30.3-8-39.7-8-41.8 0-85.1 31.7-85.1 85.9.4 31.5 21.3 79.8 86.2 79.8M455 749.4c1.5 0 8.6-.7 30.3-.7l84.4.7c.7 0 2.2-.7 2.2-1.5.7-5.1 1.5-9.3 3.6-17.3 2.2-8 5.1-13.7 5.1-16.6 0-.7 0-1.5-1.5-1.5-2.2 0-7.3 6.5-11.5 13-9.3 15.1-11.5 16.6-20.2 16.6h-41.2c-8.6 0-8.6-2.2-8.6-11.5v-64.2h20.9c17.3 0 19.5 7.3 23.1 21.7.7 1.5 0 2.9 2.9 2.9 1.5 0 1.5-1.5 1.5-2.9 0-5.8-.7-18.8-.7-26.6s1.5-20.2 1.5-20.2c0-1.5-.7-2.2-2.2-2.2-1.5 0-2.2 2.2-2.2 4.4-2.2 12.2-6.5 14.4-16.6 14.4H497v-46.1c0-13 1.5-16.6 7.3-16.6h44c4.4 0 6.5 8 12.2 16.6 3.6 6.5 8.6 10.8 12.2 10.8 2.2 0 2.9-1.5 2.2-2.9-3.6-4.4-5.1-5.8-7.3-15.9-.7-4.4-1.5-11.5-1.5-15.1 0-2.2-3.6-2.2-8.6-2.2-17.3 0-45.4 1.5-72.9 1.5-15.1 0-25.9-1.5-28.1-1.5-1.5 0-2.9.7-2.9 2.2s1.5 2.2 3.6 2.9c10.8 2.2 14.4 5.8 15.9 17.3.7 12.2.7 25.2.7 31.7v55.6c0 10.1 0 18-.7 30.3-.7 15.9-2.9 19.5-14.4 19.5-3.6 0-5.1 1.5-5.1 2.2-.8.5-.1 1.2 1.4 1.2m-221.5 1.4c53.4 0 80.8-46.1 80.8-86.6 0-46.1-39-79.3-82.2-79.3s-87.3 28.1-87.3 83.7c-.1 40.4 33.8 82.2 88.7 82.2m-8-157.2c39 0 64.2 37.5 64.2 88 0 20.2-8.6 59.1-49.8 59.1-41.8 0-69.3-41.8-69.3-91.7.9-40.3 31.9-55.4 54.9-55.4m377.3 346.2c-13.7-1.5-13.7-8.6-13.7-18.8 0-11.5-.7-21.7-.7-31.7v-37.5c0-10.8.7-35.4.7-46.9 0-15.9 5.8-18 15.9-19.5 2.2 0 2.9-.7 2.9-2.9 0-1.5-.7-1.5-2.2-1.5-2.2 0-13.7.7-28.8.7s-24.6-.7-25.9-.7c-.7 0-2.2.7-2.2 1.5 0 2.2.7 2.9 2.9 2.9 5.8 0 15.1 3.6 15.9 17.3v86.6c0 10.1-.7 18-.7 29.5s-2.9 21.7-17.3 21.7c-12.2 0-17.3-8-21.7-18.8-15.1-39-45.4-128.4-49.8-140.7-.7-2.9-.7-2.9-2.9-2.9-2.9 0-1.5 0-2.2 2.2-23.1 57-37.5 92.3-57 132-5.8 11.5-13.7 24.6-23.1 25.9-6.5.7-6.5 1.5-6.5 3.6s.7 2.2 2.2 2.2c2.2 0 4.4-.7 18-.7 20.2 0 28.8.7 31 .7 2.2 0 2.9-.7 2.9-2.2s-1.5-2.2-2.9-2.2c-8-.7-15.1-7.3-15.1-13 0-8.6 3.6-16.6 13.7-37.5 2.2-5.1 5.1-5.1 7.3-5.1h46.1c4.4 10.8 14.4 37.5 14.4 45.4 0 4.4-2.9 7.3-7.3 8.6-4.4 1.5-5.1 2.2-5.1 3.6s.7 2.2 1.5 2.2c1.5 0 12.2-.7 27.4-.7 13.7 0 24.6.7 28.1.7h.7c1.5 0 20.9-.7 28.1-.7 10.8 0 28.8.7 30.3.7 2.2 0 2.9-.7 2.9-2.2-2.1-1.1-3.4-1.1-7.8-1.8M483 879.3h-41.8c-2.2 0-1.5-2.2-1.5-2.9 5.1-13.7 22.4-56.3 23.9-59.8 0 0 .7 0 2.2 3.6 2.9 8.6 19.5 59.1 19.5 59.1H483zm163.8-132c0-2.2-1.5-2.2-5.8-2.2-13.7-1.5-13.7-8.6-13.7-18.8 0-11.5-.7-21.7-.7-31.7v-38.3c0-10.8.7-35.4.7-46.9 0-15.9 5.8-18 15.9-19.5 2.2 0 2.9-.7 2.9-2.9 0-1.5-.7-1.5-2.2-1.5-2.2 0-13.7.7-28.8.7s-24.6-.7-25.9-.7c-.7 0-2.2.7-2.2 1.5 0 2.2.7 2.9 2.9 2.9 5.8 0 15.1 3.6 15.9 17.3v86.6c0 10.1 0 15.1-.7 27.4 0 6.5 1.5 20.2-13 22.4-4.4.7-6.5.7-6.5 2.9s.7 2.2 2.2 2.2 20.9-.7 28.1-.7c10.8 0 28.8.7 30.3.7-.2.7.6 0 .6-1.4M28.6 590.7c13 .7 15.1 13 15.9 25.9V696c0 10.1-.7 11.5-.7 23.1 0 17.3-1.5 25.2-11.5 25.2-3.6 0-5.1.7-5.1 2.9 0 .7 1.5 2.2 2.2 2.2 1.5 0 18-.7 26.6-.7 7.3 0 23.1.7 24.6.7 2.9 0 4.4-.7 4.4-2.2 0-2.2-1.5-2.9-2.9-2.9-10.1 0-14.4-7.3-14.4-16.6 0-11.5-.7-22.4-.7-32.5V668h8c18.8 0 24.6 2.2 28.8 18 .7 1.5.7 2.9 3.6 2.9 1.5 0 1.5-.7 1.5-2.2v-31l.7-13c0-1.5-.7-1.5-2.2-1.5-1.5 0-2.2.7-2.2 2.9-1.5 8.6-8 16.6-16.6 16.6H66.8v-50.5c0-13.7.7-15.9 8-15.9H108c14.4 0 10.8.7 22.4 16.6 6.5 8.6 15.1 13.7 17.3 13.7 1.5 0 2.2-.7 2.2-2.2 0-2.2-5.1-10.8-5.8-15.1-2.9-10.1-3.6-13.7-3.6-18.8 0-2.2-4.4-2.2-9.3-2.2-17.3 0-45.4.7-72.9.7-15.1 0-26.6-.7-28.8-.7-1.5 0-2.2 0-2.2 1.5-.9 1.4-.9 2.9 1.3 2.9M385 882.2v-31l1.5-13.7c0-1.5-.7-1.5-2.2-1.5-1.5 0-2.2.7-2.2 2.9-1.5 8.6-8 16.6-16.6 16.6h-21.7V805c0-13.7.7-15.9 8-15.9H385c14.4 0 10.8.7 22.4 16.6 6.5 8.6 15.1 13.7 17.3 13.7 1.5 0 2.2-.7 2.2-2.2 0-2.2-5.1-10.8-5.8-15.1-2.9-10.1-3.6-13.7-3.6-18.8 0-2.2-4.4-2.2-9.3-2.2-17.3 0-45.4.7-72.9.7-15.1 0-26.6-.7-28.8-.7-1.5 0-2.2 0-2.2 1.5 0 2.2 0 3.6 2.9 3.6 12.2.7 15.1 13 15.1 25.9v80.2c0 10.1-.7 11.5-.7 23.1 0 17.3-1.5 25.2-11.5 25.2-3.6 0-5.1.7-5.1 2.9 0 .7 1.5 2.2 2.2 2.2 1.5 0 18-.7 26.6-.7 7.3 0 23.1.7 24.6.7 2.9 0 4.4-.7 4.4-2.2 0-2.2-1.5-2.9-2.9-2.9-10.1 0-14.4-7.3-14.4-16.6 0-11.5-.7-22.4-.7-32.5v-27.4h8c18.8 0 24.6 2.2 28.8 18.8.7 1.5.7 2.9 3.6 2.9-1-1.6-.2-2.2-.2-3.6M291.8 784c0-2.2-4.4-2.2-9.3-2.2-17.3 0-45.4.7-72.9.7-15.1 0-26.6-.7-28.8-.7-1.5 0-2.2 0-2.2 1.5 0 2.2 0 3.6 2.9 3.6 12.2.7 15.1 13 15.1 25.9v81.7c0 8.6-.7 15.9-.7 25.9 0 11.5-2.9 21.7-17.3 21.7-12.2 0-17.3-8-21.7-18.8-15.1-39-45.4-128.4-49.8-140.7-.7-2.9-.7-2.9-2.9-2.9-2.9 0-1.5 0-2.2 2.2-23 56.2-37.5 91.5-56.9 131.1-5.8 11.5-13.7 24.6-23.1 25.9-5.8 1.5-6.5 1.5-6.5 3.6s.7 2.2 2.2 2.2c2.2 0 4.4-.7 18-.7 20.2 0 28.8.7 31 .7s2.9-.7 2.9-2.2-1.5-2.2-2.9-2.2c-8-.7-15.1-8-15.1-13 0-8.6 3.6-16.6 13.7-37.5 2.2-5.1 5.1-5.1 7.3-5.1h46.1c4.4 10.8 14.4 37.5 14.4 45.4 0 4.4-2.9 7.3-7.3 8.6-4.4 1.5-5.1 2.2-5.1 3.6s.7 2.2 1.5 2.2c1.5 0 12.2-.7 27.4-.7 13.7 0 24.6.7 28.1.7h.7c1.5 0 18-.7 25.9-.7h3.6c7.3 0 23.1.7 24.6.7 2.9 0 4.4-.7 4.4-2.2 0-2.2-1.5-2.9-2.9-2.9-10.1 0-14.4-7.3-14.4-16.6 0-11.5-.7-22.4-.7-32.5v-27.1h8c18.8 0 24.6 2.2 28.8 18.8.7 1.5.7 2.9 3.6 2.9 1.5 0 1.5-.7 1.5-2.2v-31l1.5-13.7c0-1.5-.7-1.5-2.2-1.5s-2.2.7-2.2 2.9c-1.5 8.6-8 16.6-16.6 16.6h-21.7v-50.5c0-13.7.7-15.9 8-15.9h33.2c14.4 0 10.8.7 22.4 16.6 6.5 8.6 15.1 13.7 17.3 13.7 1.5 0 2.2-.7 2.2-2.2 0-2.2-5.1-10.8-5.8-15.1-3.6-9.9-5.1-14.3-5.1-18.6m-177.4 95.3H72.6c-2.2 0-1.5-2.2-1.5-2.9 5.1-13.7 22.4-56.3 23.9-59.8 0 0 .7 0 2.2 3.6 2.9 8.6 19.5 59.1 19.5 59.1h-2.3zm649.2 77.8c-31.7-27.4-45.4-61.3-52.7-92.3 0-.7 1.5-1.5 2.9-2.2 15.1-4.4 32.5-18.8 32.5-39 0-33.9-34.6-41.8-57.8-41.8-13.7 0-32.5 1.5-38.3 1.5-15.1 0-26.6-1.5-28.1-1.5s-2.2.7-2.2 2.2.7 2.2 2.9 2.2c8 1.5 14.4 2.9 15.9 21.7.7 10.8 0 15.9 0 25.9v57.8c0 10.1 0 10.8-.7 23.1-.7 15.9 0 24.6-10.8 25.9-3.6.7-5.8 0-5.8 2.2 0 1.5.7 2.2 2.9 2.2 1.5 0 16.6-.7 25.9-.7 8.6 0 23.9.7 25.9.7 2.1 0 3.6 0 3.6-2.2s-2.2-2.2-5.1-2.2c-9.3 0-12.2-8-13-15.1-.7-11.5-.7-23.1-.7-33.2v-25.9c5.8 0 17.3-.7 21.7 0 2.9 0 4.4 0 5.1 4.4 10.8 51.2 38.3 79.3 77.9 95.2 2.9.7 2.9 0 2.9-.7.9-2.4.2-3.8-4.9-8.2m-77.1-100.2h-24.6v-48.3c0-15.9 3.6-19.5 18-19.5 23.9 0 43.2 8.6 43.2 32.5.2 15.8-8.5 35.3-36.6 35.3"/></svg>